<?xml version="1.0" encoding="UTF-8"?>
<svg width="227px" height="29px" viewBox="0 0 227 29" version="1.1" xmlns="http://www.w3.org/2000/svg" xmlns:xlink="http://www.w3.org/1999/xlink">
    <title>witte-digital-20-60-60</title>
    <g id="04_Symbols-(Collection)" stroke="none" stroke-width="1" fill="none" fill-rule="evenodd">
        <g id="logo-/-logo_negative" fill-rule="nonzero">
            <g id="witte-digital-20-60-60">
                <circle id="Ellipse_1591" fill="#3BD8BF" opacity="0.2" cx="7.576" cy="12.8026287" r="7.576"></circle>
                <g id="Gruppe_12782" transform="translate(42.214000, 0.000000)" fill="#FFFFFF">
                    <polygon id="Pfad_11067" points="18.198 22.0436287 13.124 7.98862867 8.08 22.0436287 5.657 22.0436287 0 1.34362867 2.828 1.34362867 7.144 17.4976287 13.122 0.997628668 19.1 17.4976287 23.444 1.34362867 26.273 1.34362867 20.616 22.0436287"></polygon>
                    <polygon id="Pfad_11068" points="30.271 22.0466287 30.271 1.34662867 32.983 1.34662867 32.983 22.0466287"></polygon>
                    <polygon id="Pfad_11069" points="43.245 22.0466287 43.245 3.90862867 36.801 3.90862867 36.801 1.34362867 52.339 1.34362867 52.339 3.90862867 45.899 3.90862867 45.899 22.0456287"></polygon>
                    <polygon id="Pfad_11070" points="60.361 22.0466287 60.361 3.90862867 53.916 3.90862867 53.916 1.34362867 69.458 1.34362867 69.458 3.90862867 63.014 3.90862867 63.014 22.0456287"></polygon>
                    <polygon id="Pfad_11071" points="73.278 22.0466287 73.278 1.34662867 85.349 1.34662867 85.349 3.91162867 75.99 3.91162867 75.99 10.1816287 83.6 10.1816287 83.6 12.7476287 75.99 12.7476287 75.99 19.4836287 85.349 19.4836287 85.349 22.0486287"></polygon>
                    <path d="M92.887,10.8496287 C92.4832638,11.2596223 91.9319109,11.4904877 91.3565,11.4904877 C90.7810891,11.4904877 90.2297362,11.2596223 89.826,10.8496287 C88.9844177,9.99418023 88.9911175,8.61983142 89.841,7.77262867 C90.2341689,7.35380178 90.7830457,7.11622543 91.3575,7.11622543 C91.9319543,7.11622543 92.4808311,7.35380178 92.874,7.77262867 C93.7241495,8.61987916 93.7304047,9.99467725 92.888,10.8496287 L92.887,10.8496287 Z M92.887,21.6386287 C92.4832638,22.0486223 91.9319109,22.2794877 91.3565,22.2794877 C90.7810891,22.2794877 90.2297362,22.0486223 89.826,21.6386287 C88.9844177,20.7831802 88.9911175,19.4088314 89.841,18.5616287 C90.2341689,18.1428018 90.7830457,17.9052254 91.3575,17.9052254 C91.9319543,17.9052254 92.4808311,18.1428018 92.874,18.5616287 C93.7241495,19.4088792 93.7304047,20.7836772 92.888,21.6386287 L92.887,21.6386287 Z" id="Pfad_11072"></path>
                    <path d="M104.302,22.3376287 C102.364179,22.3743004 100.506541,21.5648697 99.214,20.1206287 C96.4727532,17.069202 96.4727532,12.4420553 99.214,9.39062867 C100.506885,7.94697938 102.36439,7.13797146 104.302,7.17462867 C105.341065,7.16766347 106.366335,7.41265782 107.29,7.88862867 C108.145792,8.30714381 108.882692,8.93400691 109.433,9.71162867 L109.433,0.172628668 L111.941,0.172628668 L111.941,22.0416287 L109.433,22.0416287 L109.433,19.7966287 C108.882853,20.5741466 108.14589,21.2007196 107.29,21.6186287 C106.366914,22.0967096 105.341527,22.3434477 104.302,22.3376287 Z M104.681,20.0376287 C106.031396,20.0756904 107.331035,19.5219372 108.239,18.5216287 C110.105312,16.3612091 110.105312,13.1590483 108.239,10.9986287 C107.303506,10.0292226 106.014181,9.48167262 104.667,9.48167262 C103.319819,9.48167262 102.030494,10.0292226 101.095,10.9986287 C99.2282595,13.1588887 99.2282595,16.3613686 101.095,18.5216287 C102.012752,19.5243036 103.322402,20.0765042 104.681,20.0336287 L104.681,20.0376287 Z" id="Pfad_11073"></path>
                    <path d="M119.785,3.04862867 C119.457376,3.38749493 119.002139,3.57263936 118.531,3.55862867 C118.05195,3.56919477 117.589063,3.38519447 117.248,3.04862867 C116.912499,2.71475604 116.723878,2.26094893 116.723878,1.78762867 C116.723878,1.31430841 116.912499,0.8605013 117.248,0.526628668 C117.584792,0.181810565 118.049083,-0.00853803039 118.531,0.000628667979 C119.004973,-0.0124404731 119.461711,0.178777898 119.785,0.525628668 C120.445819,1.23643373 120.445819,2.33682361 119.785,3.04762867 L119.785,3.04862867 Z M117.248,22.0486287 L117.248,7.46862867 L119.756,7.46862867 L119.756,22.0486287 L117.248,22.0486287 Z" id="Pfad_11074"></path>
                    <path d="M131.303,28.4326287 C129.907546,28.4536057 128.524337,28.1696605 127.25,27.6006287 C126.152621,27.1308683 125.190103,26.3941984 124.45,25.4576287 L126.199,23.7086287 C127.40208,25.3028281 129.302603,26.2158242 131.299,26.1586287 C132.573015,26.1906421 133.810505,25.7312383 134.755,24.8756287 C135.751242,23.8870904 136.267476,22.5136319 136.169,21.1136287 L136.169,19.4526287 C135.628036,20.2442037 134.895662,20.8861062 134.04,21.3186287 C133.130236,21.7889825 132.119104,22.0293195 131.095,22.0186287 C129.167009,22.0651901 127.311074,21.2853336 125.995,19.8756287 C123.267722,16.8835812 123.274229,12.3049124 126.01,9.32062867 C127.324162,7.91536677 129.174448,7.13605035 131.098,7.17762867 C132.122104,7.1669378 133.133236,7.40727487 134.043,7.87762867 C134.892745,8.30584972 135.623945,8.93676294 136.172,9.71462867 L136.172,7.46662867 L138.679,7.46662867 L138.679,21.2006287 C138.814989,23.2080851 138.063849,25.1742074 136.624,26.5796287 C135.15083,27.8520301 133.247864,28.5147241 131.303,28.4326287 L131.303,28.4326287 Z M127.891,18.2406287 C129.871018,20.1681766 133.025982,20.1681766 135.006,18.2406287 C136.838692,16.1429933 136.832275,13.0117344 134.991,10.9216287 C133.021252,8.99653202 129.874748,8.99653202 127.905,10.9216287 C126.063725,13.0117344 126.057308,16.1429933 127.89,18.2406287 L127.891,18.2406287 Z" id="Pfad_11075"></path>
                    <path d="M146.524,3.04862867 C146.196376,3.38749493 145.741139,3.57263936 145.27,3.55862867 C144.79095,3.56919477 144.328063,3.38519447 143.987,3.04862867 C143.651499,2.71475604 143.462878,2.26094893 143.462878,1.78762867 C143.462878,1.31430841 143.651499,0.8605013 143.987,0.526628668 C144.32475,0.180785927 144.790703,-0.00965017264 145.274,0.000628667979 C145.747973,-0.0124404731 146.204711,0.178777898 146.528,0.525628668 C147.188819,1.23643373 147.188819,2.33682361 146.528,3.04762867 L146.524,3.04862867 Z M143.987,22.0486287 L143.987,7.46862867 L146.495,7.46862867 L146.495,22.0486287 L143.987,22.0486287 Z" id="Pfad_11076"></path>
                    <path d="M157.487,22.1916287 C156.301578,22.2474614 155.140973,21.8396717 154.251,21.0546287 C153.385841,20.1730193 152.940194,18.9627812 153.027,17.7306287 L153.027,9.77062867 L149.936,9.77062867 L149.936,7.47062867 L153.027,7.47062867 L153.027,3.41862867 L155.535,3.41862867 L155.535,7.47062867 L159.735,7.47062867 L159.735,9.77062867 L155.535,9.77062867 L155.535,17.4106287 C155.389705,18.0914954 155.594682,18.7999051 156.081104,19.2979852 C156.567526,19.7960653 157.270884,20.0177603 157.955,19.8886287 C158.5615,19.9116781 159.166454,19.8127226 159.734,19.5976287 L159.734,21.8426287 C159.008758,22.0795262 158.249931,22.1973858 157.487,22.1916287 Z" id="Pfad_11077"></path>
                    <path d="M169.326,22.3386287 C167.388206,22.3751665 165.530621,21.5657591 164.238,20.1216287 C161.497212,17.0700262 161.497212,12.4432311 164.238,9.39162867 C165.530965,7.94808997 167.388417,7.13910528 169.326,7.17562867 C170.365375,7.16874035 171.390952,7.41372583 172.315,7.88962867 C173.170499,8.30817487 173.907066,8.93504816 174.457,9.71262867 L174.457,7.46662867 L176.965,7.46662867 L176.965,22.0466287 L174.457,22.0466287 L174.457,19.8016287 C173.90726,20.5791346 173.170621,21.2057248 172.315,21.6236287 C171.391179,22.100254 170.365504,22.3456061 169.326,22.3386287 L169.326,22.3386287 Z M169.705,20.0386287 C171.055396,20.0766904 172.355035,19.5229372 173.263,18.5226287 C175.129312,16.3622091 175.129312,13.1600483 173.263,10.9996287 C172.32768,10.0302793 171.03852,9.48275066 169.6915,9.48275066 C168.34448,9.48275066 167.05532,10.0302793 166.12,10.9996287 C164.252401,13.1595692 164.252401,16.3626881 166.12,18.5226287 C167.037364,19.5252583 168.346697,20.0774793 169.705,20.0346287 L169.705,20.0386287 Z" id="Pfad_11078"></path>
                    <polygon id="Pfad_11079" points="182.272 22.0456287 182.272 0.172628668 184.78 0.172628668 184.78 22.0416287"></polygon>
                </g>
                <circle id="Ellipse_1592" fill="#3BD8BF" opacity="0.6" cx="15.152" cy="12.8026287" r="7.576"></circle>
                <circle id="Ellipse_1593" fill="#3BD8BF" opacity="0.6" cx="22.728" cy="12.8026287" r="7.576"></circle>
            </g>
        </g>
    </g>
</svg>